<svg width="20" height="20" viewBox="0 0 20 20" fill="none" xmlns="http://www.w3.org/2000/svg">
<g opacity="0.5" clip-path="url(#clip0)">
<path d="M4.00022 10.3341C4.00022 11.4387 3.10474 12.3342 2.00011 12.3342C0.895479 12.3342 0 11.4387 0 10.3341C0 9.22946 0.895479 8.33398 2.00011 8.33398C3.10474 8.33398 4.00022 9.22946 4.00022 10.3341Z" fill="black"/>
<path d="M12.0007 10.3341C12.0007 11.4387 11.1052 12.3342 10.0006 12.3342C8.89594 12.3342 8.00046 11.4387 8.00046 10.3341C8.00046 9.22946 8.89594 8.33398 10.0006 8.33398C11.1052 8.33398 12.0007 9.22946 12.0007 10.3341Z" fill="black"/>
<path d="M20.001 10.3341C20.001 11.4387 19.1056 12.3342 18.0009 12.3342C16.8963 12.3342 16.0008 11.4387 16.0008 10.3341C16.0008 9.22946 16.8963 8.33398 18.0009 8.33398C19.1056 8.33398 20.001 9.22946 20.001 10.3341Z" fill="black"/>
</g>
<defs>
<clipPath id="clip0">
<rect width="20" height="20" fill="white"/>
</clipPath>
</defs>
</svg>
