<svg width="20" height="20" viewBox="0 0 20 20" fill="none" xmlns="http://www.w3.org/2000/svg">
<g opacity="1">
<path fill-rule="evenodd" clip-rule="evenodd" d="M10 2C5.58172 2 2 5.58172 2 10C2 14.4183 5.58172 18 10 18C14.4183 18 18 14.4183 18 10C18 5.58172 14.4183 2 10 2ZM0 10C0 4.47715 4.47715 0 10 0C15.5228 0 20 4.47715 20 10C20 15.5228 15.5228 20 10 20C4.47715 20 0 15.5228 0 10ZM7 7.84604C7 6.1999 8.41965 5 10 5C11.5804 5 13 6.1999 13 7.84604C13 9.14818 12.0744 9.80856 11.5393 10.1415L11.5381 10.1422C11.3116 10.2827 11.1761 10.3915 11.0951 10.4923C11.034 10.5683 11 10.6421 11 10.7692V11.5H9V10.7692C9 9.45178 9.93489 8.78319 10.4832 8.44303C10.7038 8.30574 10.834 8.20062 10.9112 8.10452C10.9686 8.03304 11 7.96516 11 7.84604C11 7.4523 10.6296 7 10 7C9.37035 7 9 7.4523 9 7.84604H7ZM9 15V13H11V15H9Z" fill="black"/>
</g>
</svg>
