<svg width="20" height="20" viewBox="0 0 20 20" fill="none" xmlns="http://www.w3.org/2000/svg">
<g opacity="0.5">
<path fill-rule="evenodd" clip-rule="evenodd" d="M4.44445 0V2.10526H2.88889L2.85345 2.10526H2.85344C2.57302 2.10523 2.29992 2.1052 2.06864 2.1231C1.81465 2.14276 1.51494 2.18915 1.21336 2.33472C0.795222 2.53656 0.455265 2.85863 0.242213 3.25476C0.0885497 3.54047 0.0395857 3.8244 0.0188338 4.06502C-6.28415e-05 4.28413 -3.04635e-05 4.54285 2.78204e-06 4.80851L2.78382e-06 4.80853L5.69783e-06 4.8421V17.2632L2.78382e-06 17.2967C-3.04623e-05 17.5624 -6.31788e-05 17.8211 0.0188338 18.0402C0.0395857 18.2809 0.0885497 18.5648 0.242213 18.8505C0.455265 19.2466 0.795222 19.5687 1.21336 19.7705C1.51494 19.9161 1.81465 19.9625 2.06864 19.9822C2.29987 20.0001 2.5729 20 2.85326 20H2.8533H2.85343L2.88889 20H17.1111L17.1466 20H17.1467H17.1467C17.4271 20 17.7001 20.0001 17.9314 19.9822C18.1854 19.9625 18.4851 19.9161 18.7866 19.7705C19.2048 19.5687 19.5447 19.2466 19.7578 18.8505C19.9115 18.5648 19.9604 18.2809 19.9812 18.0402C20.0001 17.8212 20 17.5625 20 17.2969V17.2969V17.2967L20 17.2632V4.8421L20 4.80851V4.80839V4.80835C20 4.54275 20.0001 4.28409 19.9812 4.06502C19.9604 3.8244 19.9115 3.54046 19.7578 3.25476C19.5447 2.85863 19.2048 2.53656 18.7866 2.33472C18.4851 2.18915 18.1854 2.14276 17.9314 2.1231C17.7001 2.1052 17.427 2.10523 17.1466 2.10526H17.1465L17.1111 2.10526H15.5556V0H13.3333V2.10526H6.66667V0H4.44445ZM2.88889 4.21053H4.44445V6.31579H6.66667V4.21053H13.3333V6.31579H15.5556V4.21053H17.1111C17.4406 4.21053 17.6209 4.21134 17.7504 4.22137L17.7651 4.22258L17.7663 4.23646C17.7769 4.35918 17.7778 4.52997 17.7778 4.8421V8.42105H2.22223V4.8421C2.22223 4.52997 2.22309 4.35918 2.23367 4.23646L2.23495 4.22258L2.2496 4.22137C2.37914 4.21134 2.55942 4.21053 2.88889 4.21053ZM2.22223 10.5263V17.2632C2.22223 17.5753 2.22309 17.7461 2.23367 17.8688L2.23495 17.8827L2.2496 17.8839C2.37914 17.8939 2.55942 17.8947 2.88889 17.8947H17.1111C17.4406 17.8947 17.6209 17.8939 17.7504 17.8839L17.7651 17.8827L17.7663 17.8688C17.7769 17.7461 17.7778 17.5753 17.7778 17.2632V10.5263H2.22223Z" fill="black"/>
</g>
</svg>
